<svg width="38" height="44" viewBox="0 0 38 44" fill="none" xmlns="http://www.w3.org/2000/svg">
<path d="M14.1981 2.45956L15.2412 1.48153C15.5093 1.23268 15.6316 1.09957 15.6316 0.833358C15.6316 0.555572 15.416 0.376168 15.1246 0.376168C14.7925 0.376168 14.606 0.578721 14.5827 0.85072H14.1864C14.2039 0.376168 14.5535 0 15.1363 0C15.7074 0 16.0396 0.341445 16.0396 0.81021C16.0396 1.14587 15.8822 1.39472 15.5384 1.70144L14.775 2.39012H16.0629V2.77207H14.1981V2.45956Z" fill="white"/>
<path d="M31.3309 5.86243H31.2435V6.34856H31.3892C31.9545 6.34856 32.3566 5.9666 32.3566 5.13903C32.3566 4.62397 32.1176 4.23044 31.6864 4.23044C31.3542 4.23044 31.0862 4.49665 31.0862 4.82652C31.0862 5.17375 31.3484 5.4226 31.6806 5.4226C31.733 5.4226 31.7738 5.41682 31.8146 5.39367C31.7738 5.7409 31.564 5.86243 31.3309 5.86243Z" fill="white"/>
<path d="M7.6713 5.24315H6.37177V9.06271H5.36362V5.24315H4.05826V4.32298H7.6713V5.24315Z" fill="white"/>
<path d="M18.9999 23.2355C18.1724 23.2355 17.3857 23.3975 16.6689 23.6985C17.9918 24.202 18.9999 25.3768 18.9999 26.7483C18.9999 25.3768 20.0023 24.202 21.3309 23.6985C20.6142 23.3975 19.8274 23.2355 18.9999 23.2355Z" fill="white"/>
<path fill-rule="evenodd" clip-rule="evenodd" d="M13.8018 26.8062C13.8018 25.6545 14.74 24.7228 15.8997 24.7228C17.0594 24.7228 17.9976 25.6603 17.9976 26.8062C17.9976 27.9579 17.0594 28.8896 15.8997 28.8896C14.74 28.8896 13.8018 27.9579 13.8018 26.8062ZM14.7983 26.8062C14.7983 27.4081 15.2936 27.9 15.8997 27.9C16.5058 27.9 16.9953 27.4139 17.0011 26.8062C17.0011 26.2043 16.5058 25.7124 15.8997 25.7124C15.2936 25.7124 14.7983 26.2043 14.7983 26.8062Z" fill="white"/>
<path fill-rule="evenodd" clip-rule="evenodd" d="M22.1002 24.7228C20.9405 24.7228 20.0023 25.6545 20.0023 26.8062C20.0023 27.9579 20.9405 28.8896 22.1002 28.8896C23.2599 28.8896 24.1981 27.9579 24.1981 26.8062C24.1981 25.6603 23.2599 24.7228 22.1002 24.7228ZM22.1002 27.9C21.4941 27.9 20.9988 27.4081 20.9988 26.8062C20.9988 26.2043 21.4941 25.7124 22.1002 25.7124C22.7063 25.7124 23.2016 26.2043 23.2016 26.8062C23.2016 27.4139 22.7063 27.9 22.1002 27.9Z" fill="white"/>
<path fill-rule="evenodd" clip-rule="evenodd" d="M11.0163 26.2045C11.0163 21.8294 14.5886 18.276 19 18.276C23.4114 18.276 26.9837 21.8236 26.9837 26.2045C26.9837 30.5796 23.4056 34.133 19 34.133C14.5944 34.133 11.0163 30.5854 11.0163 26.2045ZM19.9907 29.0692C20.5443 29.5784 21.2844 29.8909 22.1002 29.8909C23.8135 29.8909 25.2063 28.5136 25.2063 26.8121C25.2063 25.9151 24.8158 25.0991 24.1923 24.5378L25.2063 23.444H22.9569C21.8321 22.6801 20.4685 22.2345 19 22.2345C17.5315 22.2345 16.1736 22.6801 15.0489 23.444H12.7937L13.8077 24.5378C13.1841 25.0991 12.7937 25.9093 12.7937 26.8121C12.7937 28.5136 14.1806 29.8909 15.8939 29.8909C16.7098 29.8909 17.4499 29.5784 18.0035 29.0692L18.9942 30.1456L19.9907 29.0692Z" fill="white"/>
<path fill-rule="evenodd" clip-rule="evenodd" d="M8.99995 26.1987C8.99995 20.7124 13.4755 16.2678 18.9999 16.2678C24.5244 16.2678 28.9999 20.7182 28.9999 26.1987C28.9999 31.6849 24.5244 36.1295 18.9999 36.1295C13.4755 36.1295 8.99995 31.6849 8.99995 26.1987ZM10.0081 26.2045C10.0081 31.1352 14.0349 35.1341 18.9999 35.1341C23.965 35.1341 27.9918 31.1352 27.9918 26.2045C27.9918 21.2738 23.965 17.2748 18.9999 17.2748C14.0349 17.2748 10.0081 21.2738 10.0081 26.2045Z" fill="white"/>
<path d="M5.1538 21.9566C6.17944 24.0284 6.23771 25.7241 6.23771 25.7241C6.23771 25.7241 4.60019 25.1685 3.50462 22.9636C2.41487 20.7587 2.27501 18.901 2.27501 18.901C2.27501 18.901 4.12816 19.8906 5.1538 21.9566Z" fill="white"/>
<path d="M6.16197 29.6824C6.16197 29.6824 5.95218 28.0215 4.72841 26.0886C3.50463 24.1556 1.54077 23.357 1.54077 23.357C1.54077 23.357 1.8438 25.1684 3.14916 27.2286C4.44869 29.2889 6.16197 29.6824 6.16197 29.6824Z" fill="white"/>
<path d="M4.47198 29.5494C6.16196 31.1004 6.79715 32.6398 6.79715 32.6398C6.79715 32.6398 5.03142 32.6919 3.23073 31.0425C1.43003 29.3932 0.666626 27.7323 0.666626 27.7323C0.666626 27.7323 2.78201 27.9985 4.47198 29.5494Z" fill="white"/>
<path d="M10.0373 35.2846C10.0373 35.2846 8.94753 34.1676 6.91956 33.3979C4.89159 32.6282 2.9219 33.1028 2.9219 33.1028C2.9219 33.1028 4.16898 34.2776 6.33098 35.0994C8.49298 35.9212 10.0373 35.2846 10.0373 35.2846Z" fill="white"/>
<path d="M13.4347 37.1886C13.4347 37.1886 12.2226 36.2626 10.0431 36.008C7.88107 35.7534 6.26685 36.8992 6.26685 36.8992C6.26685 36.8992 7.72373 37.4953 9.93818 37.7152C12.1526 37.9351 13.4347 37.1886 13.4347 37.1886Z" fill="white"/>
<path d="M11.0862 34.1619C11.0862 34.1619 10.5792 32.9003 9.20977 31.6213C7.84031 30.3424 6.11537 30.1109 6.11537 30.1109C6.11537 30.1109 6.72725 31.4709 8.18413 32.8309C9.641 34.1908 11.0862 34.1619 11.0862 34.1619Z" fill="white"/>
<path d="M12.5489 34.862C13.831 35.3597 14.5361 36.0426 14.5361 36.0426C14.5361 36.0426 13.5862 36.3841 12.2226 35.8574C10.8531 35.3308 10.0489 34.6074 10.0489 34.6074C10.0489 34.6074 11.2669 34.3643 12.5489 34.862Z" fill="white"/>
<path d="M17.8869 36.7199C17.8869 36.7199 17.1526 36.4189 16.0629 36.4595C14.9731 36.5 14.1631 37.0903 14.1631 37.0903C14.1631 37.0903 14.979 37.3854 16.1445 37.3507C17.3041 37.3044 17.8869 36.7199 17.8869 36.7199Z" fill="white"/>
<path d="M8.2657 28.23C9.33796 29.7636 9.57689 31.1062 9.57689 31.1062C9.57689 31.1062 8.16663 30.8458 7.01861 29.2196C5.87642 27.5876 5.55591 26.1234 5.55591 26.1234C5.55591 26.1234 7.19344 26.7022 8.2657 28.23Z" fill="white"/>
<path d="M8.22494 27.0088C8.22494 27.0088 8.48718 25.643 8.04429 23.8143C7.6014 21.9855 6.30769 20.8628 6.30769 20.8628C6.30769 20.8628 6.08042 22.3675 6.54662 24.3177C7.01865 26.268 8.22494 27.0088 8.22494 27.0088Z" fill="white"/>
<path d="M27.9568 36.008C25.7773 36.2626 24.5652 37.1886 24.5652 37.1886C24.5652 37.1886 25.8472 37.9351 28.0617 37.7152C30.2761 37.4953 31.733 36.8992 31.733 36.8992C31.733 36.8992 30.1188 35.7534 27.9568 36.008Z" fill="white"/>
<path d="M27.9627 35.2846C27.9627 35.2846 29.0524 34.1676 31.0804 33.3979C33.1084 32.6282 35.0781 33.1028 35.0781 33.1028C35.0781 33.1028 33.831 34.2776 31.669 35.0994C29.507 35.9212 27.9627 35.2846 27.9627 35.2846Z" fill="white"/>
<path d="M33.5279 29.5494C31.838 31.1004 31.2028 32.6398 31.2028 32.6398C31.2028 32.6398 32.9685 32.6919 34.7692 31.0425C36.5699 29.3932 37.3333 27.7323 37.3333 27.7323C37.3333 27.7323 35.2179 27.9985 33.5279 29.5494Z" fill="white"/>
<path d="M31.8379 29.6824C31.8379 29.6824 32.0477 28.0215 33.2715 26.0886C34.4953 24.1556 36.4591 23.357 36.4591 23.357C36.4591 23.357 36.1561 25.1684 34.8507 27.2286C33.5512 29.2889 31.8379 29.6824 31.8379 29.6824Z" fill="white"/>
<path d="M32.8461 21.9566C31.8204 24.0284 31.7622 25.7241 31.7622 25.7241C31.7622 25.7241 33.3997 25.1685 34.4953 22.9636C35.585 20.7587 35.7249 18.901 35.7249 18.901C35.7249 18.901 33.8717 19.8906 32.8461 21.9566Z" fill="white"/>
<path d="M26.9137 34.1619C26.9137 34.1619 27.4207 32.9003 28.7901 31.6213C30.1596 30.3424 31.8845 30.1109 31.8845 30.1109C31.8845 30.1109 31.2727 31.4709 29.8158 32.8309C28.3589 34.1908 26.9137 34.1619 26.9137 34.1619Z" fill="white"/>
<path d="M25.451 34.862C24.1689 35.3597 23.4638 36.0426 23.4638 36.0426C23.4638 36.0426 24.4137 36.3841 25.7773 35.8574C27.1468 35.3308 27.951 34.6074 27.951 34.6074C27.951 34.6074 26.733 34.3643 25.451 34.862Z" fill="white"/>
<path d="M20.113 36.7199C20.113 36.7199 20.8473 36.4189 21.937 36.4595C23.0268 36.5 23.8368 37.0903 23.8368 37.0903C23.8368 37.0903 23.021 37.3854 21.8555 37.3507C20.6958 37.3044 20.113 36.7199 20.113 36.7199Z" fill="white"/>
<path d="M29.7342 28.23C28.6619 29.7636 28.423 31.1062 28.423 31.1062C28.423 31.1062 29.8333 30.8458 30.9813 29.2196C32.1235 27.5876 32.444 26.1234 32.444 26.1234C32.444 26.1234 30.8064 26.7022 29.7342 28.23Z" fill="white"/>
<path d="M29.775 27.0088C29.775 27.0088 29.5127 25.643 29.9556 23.8143C30.3985 21.9855 31.6922 20.8628 31.6922 20.8628C31.6922 20.8628 31.9195 22.3675 31.4533 24.3177C30.9813 26.268 29.775 27.0088 29.775 27.0088Z" fill="white"/>
<path d="M18.9999 37.7498C19.303 37.7498 19.5536 37.5067 19.5536 37.2C19.5536 36.8991 19.303 36.6502 18.9999 36.6502C18.6969 36.6502 18.4463 36.8933 18.4463 37.2C18.4463 37.5009 18.6969 37.7498 18.9999 37.7498Z" fill="white"/>
<path d="M8.0151 40.6204V40.1169H7.23422V43.1147H8.0151V41.3148C8.0151 40.9907 8.22489 40.8287 8.55123 40.8287H8.97664V40.1111H8.61533C8.33562 40.1169 8.08503 40.2616 8.0151 40.6204Z" fill="white"/>
<path d="M9.32049 40.1167H10.0955V43.1145H9.32049V40.1167Z" fill="white"/>
<path fill-rule="evenodd" clip-rule="evenodd" d="M12.2401 40.0647C11.8904 40.0647 11.5757 40.1804 11.3252 40.3714V40.1168H10.5443V44H11.3193V42.8599C11.5699 43.0509 11.8904 43.1666 12.2343 43.1666C13.0967 43.1666 13.796 42.4722 13.796 41.6157C13.796 40.7592 13.1025 40.0647 12.2401 40.0647ZM12.1701 42.4548C11.7039 42.4548 11.3193 42.0787 11.3193 41.6099C11.3193 41.1469 11.6981 40.7649 12.1701 40.7649C12.6363 40.7649 13.021 41.1411 13.021 41.6099C13.0151 42.0787 12.6363 42.4548 12.1701 42.4548Z" fill="white"/>
<path d="M26.8438 41.2279L27.2983 41.3495C27.9102 41.5115 28.0384 41.8819 28.0326 42.1712C28.0326 42.7442 27.5314 43.1666 26.8438 43.1666C26.1328 43.1666 25.6316 42.7326 25.6316 42.1192V42.1018H26.3892V42.1192C26.3892 42.3738 26.5757 42.5474 26.8496 42.5474C27.1177 42.5474 27.2925 42.4201 27.2925 42.2291C27.2925 42.0497 27.1701 41.9513 26.8379 41.8587L26.4067 41.743C25.9522 41.6215 25.6899 41.3263 25.6899 40.9328C25.6899 40.4293 26.1678 40.0647 26.8263 40.0647C27.4906 40.0647 27.9393 40.4293 27.9393 40.9733V40.9907H27.2225V40.9733C27.2225 40.7881 27.0477 40.6434 26.8263 40.6434C26.5932 40.6434 26.43 40.7534 26.43 40.9038C26.43 41.0601 26.5466 41.1527 26.8438 41.2279Z" fill="white"/>
<path fill-rule="evenodd" clip-rule="evenodd" d="M16.5524 40.3658C16.3018 40.1748 15.9813 40.059 15.6375 40.059C14.775 40.059 14.0757 40.7535 14.0757 41.61C14.0757 42.4665 14.775 43.161 15.6375 43.161C15.9872 43.161 16.3018 43.0453 16.5524 42.8543V43.1089H17.3275V40.1111H16.5524V40.3658ZM15.7074 42.455C15.2412 42.455 14.8566 42.0788 14.8566 41.61C14.8566 41.147 15.2354 40.7651 15.7074 40.7651C16.1795 40.7651 16.5583 41.1413 16.5583 41.61C16.5524 42.0788 16.1736 42.455 15.7074 42.455Z" fill="white"/>
<path fill-rule="evenodd" clip-rule="evenodd" d="M19.2214 40.0589C19.5652 40.0589 19.8857 40.1746 20.1363 40.3656V39.0404H20.9114V43.1088H20.1363V42.8541C19.8857 43.0451 19.571 43.1608 19.2214 43.1608C18.3589 43.1608 17.6596 42.4664 17.6596 41.6099C17.6596 40.7534 18.3589 40.0589 19.2214 40.0589ZM18.4347 41.6099C18.4347 42.0786 18.8193 42.4548 19.2855 42.4548C19.7575 42.4548 20.1363 42.0786 20.1363 41.6099C20.1363 41.1411 19.7517 40.7649 19.2855 40.7649C18.8135 40.7649 18.4347 41.1469 18.4347 41.6099Z" fill="white"/>
<path d="M25.2936 40.1167H24.5186V43.1145H25.2936V40.1167Z" fill="white"/>
<path fill-rule="evenodd" clip-rule="evenodd" d="M28.2715 41.6157C28.2715 40.7592 28.9708 40.0647 29.8333 40.0647C30.6958 40.0647 31.395 40.7592 31.395 41.6157C31.395 42.4722 30.6958 43.1666 29.8333 43.1666C28.9708 43.1666 28.2715 42.4722 28.2715 41.6157ZM28.9825 41.6099C28.9825 42.0787 29.3671 42.4548 29.8333 42.4548C30.2995 42.4548 30.6783 42.0787 30.6841 41.6099C30.6841 41.1411 30.2995 40.7649 29.8333 40.7649C29.3613 40.7649 28.9825 41.1469 28.9825 41.6099Z" fill="white"/>
<path d="M32.5314 40.6204V40.1169H31.7505V43.1147H32.5314V41.3148C32.5314 40.9907 32.7412 40.8287 33.0675 40.8287H33.4929V40.1111H33.1316C32.8461 40.1169 32.6013 40.2616 32.5314 40.6204Z" fill="white"/>
<path d="M4.64102 39.0462H7.61887V39.7349H6.51747V43.1147H5.74241V39.7349H4.64102V39.0462Z" fill="white"/>
<path d="M22.6887 42.2927L21.9953 40.1167H21.1794L22.2167 43.1145H23.1491L24.1922 40.1167H23.3764L22.6887 42.2927Z" fill="white"/>
<path d="M9.71095 39.8679C9.97319 39.8679 10.183 39.6596 10.183 39.3992C10.183 39.1387 9.97319 38.9304 9.71095 38.9304C9.44871 38.9304 9.23892 39.1387 9.23892 39.3992C9.23892 39.6596 9.44871 39.8679 9.71095 39.8679Z" fill="white"/>
<path d="M25.3811 39.3992C25.3811 39.6596 25.1713 39.8679 24.909 39.8679C24.6468 39.8679 24.437 39.6596 24.437 39.3992C24.437 39.1387 24.6468 38.9304 24.909 38.9304C25.1713 38.9304 25.3811 39.1387 25.3811 39.3992Z" fill="white"/>
<path d="M9.44866 6.62055V5.72353H9.02908C8.70857 5.72353 8.40554 5.90293 8.32978 6.34855V5.72353H7.43817V9.06854H8.39388V7.16454C8.39388 6.79416 8.57453 6.62055 8.94167 6.62055H9.44866Z" fill="white"/>
<path fill-rule="evenodd" clip-rule="evenodd" d="M9.56526 7.39006C9.56526 6.40624 10.2646 5.62496 11.2319 5.62496C11.7098 5.62496 12.0653 5.77543 12.2867 6.00113V5.71756H13.1725V9.06256H12.2925V8.65746C12.0769 8.94682 11.7564 9.16095 11.2086 9.16095C10.2646 9.15516 9.56526 8.37389 9.56526 7.39006ZM12.2925 7.39006C12.2925 6.85764 11.8963 6.50462 11.4068 6.50462C10.9172 6.50462 10.521 6.85764 10.521 7.39006C10.521 7.92248 10.9172 8.2755 11.4068 8.2755C11.8963 8.2755 12.2925 7.92248 12.2925 7.39006Z" fill="white"/>
<path d="M14.5711 5.71774H13.5512L14.6643 9.06275H15.754L16.8729 5.71774H15.8531L15.3403 7.48284C15.282 7.68539 15.247 7.8185 15.2121 7.97475L15.2087 7.95963C15.1752 7.80983 15.1459 7.6788 15.0839 7.48284L14.5711 5.71774Z" fill="white"/>
<path fill-rule="evenodd" clip-rule="evenodd" d="M20.2995 7.61576H17.8053C17.8461 8.07874 18.1958 8.37389 18.6095 8.37389C19 8.37389 19.2855 8.17134 19.3671 7.86461H20.2762C20.113 8.68061 19.507 9.15516 18.6095 9.15516C17.5547 9.15516 16.8554 8.38546 16.8554 7.39006C16.8554 6.34836 17.6538 5.62496 18.5979 5.62496C19.6585 5.62496 20.2995 6.26734 20.2995 7.46529V7.61576ZM17.852 6.90393H19.4137C19.3205 6.57406 19.0524 6.35415 18.6154 6.35415C18.2657 6.35415 17.9743 6.56249 17.852 6.90393Z" fill="white"/>
<path d="M20.7424 4.32298H21.6981V9.05692H20.7424V4.32298Z" fill="white"/>
<path fill-rule="evenodd" clip-rule="evenodd" d="M25.5442 7.61576H23.0442C23.085 8.07874 23.4347 8.37389 23.8484 8.37389C24.2389 8.37389 24.5244 8.17134 24.606 7.86461H25.5209C25.3577 8.68061 24.7517 9.15516 23.8543 9.15516C22.7995 9.15516 22.1002 8.38546 22.1002 7.39006C22.1002 6.34836 22.8985 5.62496 23.8426 5.62496C24.9032 5.62496 25.5442 6.26734 25.5442 7.46529V7.61576ZM23.0909 6.90393H24.6526C24.5594 6.57406 24.2913 6.35415 23.8543 6.35415C23.5046 6.35415 23.2132 6.56249 23.0909 6.90393Z" fill="white"/>
<path d="M27.9859 6.62055V5.72353H27.5664C27.2458 5.72353 26.9428 5.90293 26.8671 6.34855V5.72353H25.9813V9.06854H26.937V7.16454C26.937 6.79416 27.1176 6.62055 27.4848 6.62055H27.9859Z" fill="white"/>
<path d="M28.2482 7.963H29.2156C29.2156 8.19448 29.3613 8.35074 29.5885 8.35074C29.8158 8.35074 29.9498 8.24078 29.9498 8.07295C29.9498 7.88776 29.7983 7.78938 29.4953 7.70257L29.0524 7.57525C28.6095 7.44793 28.3007 7.13542 28.3007 6.6493C28.3007 6.03585 28.8601 5.62496 29.5536 5.62496C30.3461 5.62496 30.7773 6.07058 30.7773 6.6956H29.8799C29.8799 6.53355 29.7517 6.3773 29.5477 6.3773C29.3554 6.3773 29.2272 6.48726 29.2272 6.61457C29.2272 6.77083 29.3496 6.84606 29.6177 6.9213L30.1072 7.0544C30.5559 7.17593 30.8706 7.48266 30.8706 7.98036C30.8706 8.61116 30.3752 9.15516 29.5769 9.15516C28.8426 9.15516 28.2482 8.70376 28.2482 7.963Z" fill="white"/>
<path d="M8.38223 12.7781C8.38223 11.3255 9.47197 10.3127 10.789 10.3127C12.071 10.3127 12.8752 11.0187 13.0559 12.1415H12.0244C11.8729 11.5859 11.4242 11.2502 10.7832 11.2502C10.0139 11.2502 9.38456 11.8753 9.38456 12.7781C9.38456 13.6867 10.0139 14.3059 10.7832 14.3059C11.4184 14.3059 11.8729 13.9818 12.0244 13.4031H13.0734C12.8694 14.5374 11.972 15.2376 10.7832 15.2376C9.44866 15.2434 8.38223 14.2364 8.38223 12.7781Z" fill="white"/>
<path d="M14.4545 10.4111H13.4988L13.493 15.1451H14.4487V13.2121C14.4487 12.8186 14.7168 12.5466 15.0781 12.5466C15.4394 12.5466 15.7074 12.8186 15.7074 13.2121V15.1451H16.6631V12.9401C16.6631 12.1762 16.1969 11.7075 15.5268 11.7075C14.9848 11.7075 14.606 11.9795 14.4545 12.2573V10.4111Z" fill="white"/>
<path fill-rule="evenodd" clip-rule="evenodd" d="M17.0302 13.4782C17.0302 12.4944 17.7529 11.7131 18.8484 11.7131C19.944 11.7131 20.6666 12.5002 20.6666 13.4782C20.6666 14.462 19.944 15.2433 18.8484 15.2433C17.7529 15.2433 17.0302 14.4563 17.0302 13.4782ZM19.7109 13.4782C19.7109 12.9458 19.3379 12.5928 18.8484 12.5928C18.3589 12.5928 17.9801 12.9458 17.9801 13.4782C17.9801 14.0106 18.3531 14.3637 18.8484 14.3637C19.3379 14.3637 19.7109 14.0106 19.7109 13.4782Z" fill="white"/>
<path d="M21.5233 10.1853C21.1911 10.1853 20.9231 10.4515 20.9231 10.7814C20.9231 11.1171 21.1853 11.3775 21.5233 11.3775C21.8555 11.3775 22.1235 11.1113 22.1235 10.7814C22.1235 10.4515 21.8555 10.1853 21.5233 10.1853Z" fill="white"/>
<path d="M22.0011 11.8057H21.0454V15.1507H22.0011V11.8057Z" fill="white"/>
<path d="M22.3858 13.4782C22.3858 12.4944 23.1025 11.7131 24.1631 11.7131C25.2238 11.7131 25.8007 12.2745 25.8997 13.0615H24.9032C24.81 12.7838 24.5711 12.5928 24.1631 12.5928C23.7319 12.5928 23.3415 12.9458 23.3415 13.4782C23.3415 14.0106 23.7319 14.3637 24.1631 14.3637C24.5652 14.3637 24.7983 14.19 24.9032 13.8949H25.8997C25.7424 14.7167 25.1888 15.2433 24.1631 15.2433C23.1025 15.2433 22.3858 14.4563 22.3858 13.4782Z" fill="white"/>
<path fill-rule="evenodd" clip-rule="evenodd" d="M27.0302 13.6983H29.5302L29.5361 13.5478C29.5361 12.3498 28.895 11.7075 27.8344 11.7075C26.8904 11.7075 26.092 12.4309 26.092 13.4726C26.092 14.468 26.7855 15.2377 27.8403 15.2377C28.7377 15.2377 29.3438 14.7631 29.5069 13.9471H28.592C28.5104 14.2538 28.2249 14.4564 27.8344 14.4564C27.4207 14.4564 27.071 14.1612 27.0302 13.6983ZM28.6386 12.9864H27.0769C27.1992 12.6508 27.4964 12.4424 27.8403 12.4367C28.2773 12.4367 28.5454 12.6566 28.6386 12.9864Z" fill="white"/>
<path fill-rule="evenodd" clip-rule="evenodd" d="M17.8228 0.00578679C17.0128 0.00578679 16.4242 0.619231 16.4242 1.42365C16.4242 2.22808 17.0186 2.84731 17.8228 2.84152C18.6328 2.84152 19.2214 2.22229 19.2214 1.42365C19.2214 0.625018 18.6328 0.00578679 17.8228 0.00578679ZM17.8228 0.376168C18.3589 0.376168 18.8076 0.775486 18.8076 1.42365C18.8076 2.07182 18.3589 2.47114 17.8228 2.47114C17.2866 2.47114 16.8379 2.07182 16.8379 1.42365C16.8379 0.775486 17.2866 0.376168 17.8228 0.376168Z" fill="white"/>
<path d="M19.571 2.45956L20.6141 1.48153C20.8822 1.23268 21.0046 1.09957 21.0046 0.833358C21.0046 0.555572 20.789 0.376168 20.4976 0.376168C20.1654 0.376168 19.9789 0.57872 19.9556 0.850719H19.5594C19.5768 0.376168 19.9265 0 20.5092 0C21.0803 0 21.4125 0.341445 21.4125 0.810209C21.4125 1.14587 21.2552 1.39472 20.9113 1.70144L20.1479 2.39012H21.4358V2.77207H19.571V2.45956Z" fill="white"/>
<path d="M22.1409 2.41905H21.7214C21.7214 2.9399 22.1176 3.46075 22.8403 3.46075C23.5162 3.46075 23.9533 3.02092 23.9533 2.43641C23.9533 2.02552 23.7202 1.75931 23.3997 1.64935C23.6328 1.5394 23.8601 1.27319 23.8601 0.902805C23.8601 0.39353 23.4813 0.00578679 22.8286 0.00578679C22.2284 0.00578679 21.8146 0.422466 21.7971 0.949102H22.1876C22.2167 0.619231 22.4789 0.376168 22.8286 0.376168C23.2132 0.376168 23.4521 0.607657 23.4521 0.937528C23.4521 1.27319 23.2132 1.47574 22.8577 1.47574H22.6713V1.84033H22.8577C23.2598 1.84033 23.5221 2.0834 23.5221 2.43063C23.5221 2.83573 23.254 3.08458 22.8403 3.08458C22.409 3.08458 22.1643 2.77207 22.1409 2.41905Z" fill="white"/>
<path d="M29.2039 10.6772H29.775V10.7988H29.5536V11.4354H29.4254V10.7988H29.2039V10.6772Z" fill="white"/>
<path d="M30.0372 10.6772L30.247 11.2444L30.4568 10.6772H30.6142V11.4354H30.486V11.0129C30.486 10.9724 30.486 10.9376 30.4918 10.8971L30.2937 11.4354H30.2004L30.0023 10.8971C30.0023 10.9174 30.0037 10.9362 30.0052 10.955C30.0067 10.9738 30.0081 10.9926 30.0081 11.0129V11.4354H29.8799V10.6772H30.0372Z" fill="white"/>
</svg>
