<svg width="44" height="26" viewBox="0 0 44 26" fill="none" xmlns="http://www.w3.org/2000/svg">
<path d="M21.9999 8.6065C21.0372 8.6065 20.1219 8.79502 19.2879 9.14514C20.827 9.73092 21.9999 11.0977 21.9999 12.6935C21.9999 11.0977 23.1661 9.73092 24.7119 9.14514C23.878 8.79502 22.9627 8.6065 21.9999 8.6065Z" fill="white"/>
<path fill-rule="evenodd" clip-rule="evenodd" d="M15.9522 12.7608C15.9522 11.4209 17.0438 10.3369 18.393 10.3369C19.7422 10.3369 20.8338 11.4277 20.8338 12.7608C20.8338 14.1007 19.7422 15.1847 18.393 15.1847C17.0438 15.1847 15.9522 14.1007 15.9522 12.7608ZM17.1116 12.7608C17.1116 13.461 17.6879 14.0334 18.393 14.0334C19.0981 14.0334 19.6676 13.4678 19.6744 12.7608C19.6744 12.0606 19.0981 11.4883 18.393 11.4883C17.6879 11.4883 17.1116 12.0606 17.1116 12.7608Z" fill="white"/>
<path fill-rule="evenodd" clip-rule="evenodd" d="M25.6069 10.3369C24.2577 10.3369 23.1661 11.4209 23.1661 12.7608C23.1661 14.1007 24.2577 15.1847 25.6069 15.1847C26.9561 15.1847 28.0477 14.1007 28.0477 12.7608C28.0477 11.4277 26.9561 10.3369 25.6069 10.3369ZM25.6069 14.0334C24.9018 14.0334 24.3255 13.461 24.3255 12.7608C24.3255 12.0606 24.9018 11.4883 25.6069 11.4883C26.312 11.4883 26.8883 12.0606 26.8883 12.7608C26.8883 13.4678 26.312 14.0334 25.6069 14.0334Z" fill="white"/>
<path fill-rule="evenodd" clip-rule="evenodd" d="M12.7114 12.0607C12.7114 6.97053 16.8675 2.83642 22 2.83642C27.1324 2.83642 31.2885 6.9638 31.2885 12.0607C31.2885 17.151 27.1256 21.2851 22 21.2851C16.8743 21.2851 12.7114 17.1577 12.7114 12.0607ZM23.1526 15.3936C23.7967 15.9861 24.6577 16.3497 25.6069 16.3497C27.6002 16.3497 29.2206 14.7473 29.2206 12.7677C29.2206 11.7241 28.7664 10.7747 28.0409 10.1216L29.2206 8.84906H26.6036C25.295 7.9603 23.7085 7.44185 22 7.44185C20.2914 7.44185 18.7117 7.9603 17.4032 8.84906H14.7793L15.959 10.1216C15.2336 10.7747 14.7793 11.7174 14.7793 12.7677C14.7793 14.7473 16.3929 16.3497 18.3863 16.3497C19.3354 16.3497 20.1965 15.9861 20.8406 15.3936L21.9932 16.646L23.1526 15.3936Z" fill="white"/>
<path fill-rule="evenodd" clip-rule="evenodd" d="M10.3655 12.054C10.3655 5.67101 15.5725 0.5 21.9999 0.5C28.4273 0.5 33.6343 5.67774 33.6343 12.054C33.6343 18.4369 28.4273 23.608 21.9999 23.608C15.5725 23.608 10.3655 18.4369 10.3655 12.054ZM11.5384 12.0607C11.5384 17.7973 16.2234 22.4499 21.9999 22.4499C27.7765 22.4499 32.4614 17.7973 32.4614 12.0607C32.4614 6.32412 27.7765 1.67156 21.9999 1.67156C16.2234 1.67156 11.5384 6.32412 11.5384 12.0607Z" fill="white"/>
<path d="M5.89073 7.1186C7.08401 9.52905 7.15181 11.5018 7.15181 11.5018C7.15181 11.5018 5.24664 10.8555 3.97201 8.29016C2.70415 5.72486 2.54143 3.56353 2.54143 3.56353C2.54143 3.56353 4.69746 4.71489 5.89073 7.1186Z" fill="white"/>
<path d="M7.06369 16.1071C7.06369 16.1071 6.81961 14.1747 5.39582 11.9259C3.97203 9.67703 1.68718 8.74787 1.68718 8.74787C1.68718 8.74787 2.03974 10.8553 3.55845 13.2523C5.07038 15.6493 7.06369 16.1071 7.06369 16.1071Z" fill="white"/>
<path d="M5.09748 15.9524C7.06367 17.7569 7.80269 19.5479 7.80269 19.5479C7.80269 19.5479 5.74836 19.6085 3.65335 17.6896C1.55834 15.7706 0.670166 13.8382 0.670166 13.8382C0.670166 13.8382 3.13129 14.148 5.09748 15.9524Z" fill="white"/>
<path d="M11.5724 22.6249C11.5724 22.6249 10.3045 21.3254 7.9451 20.4299C5.58567 19.5344 3.29404 20.0865 3.29404 20.0865C3.29404 20.0865 4.74496 21.4533 7.26032 22.4094C9.77569 23.3655 11.5724 22.6249 11.5724 22.6249Z" fill="white"/>
<path d="M15.5251 24.8401C15.5251 24.8401 14.1148 23.7628 11.5791 23.4666C9.06376 23.1703 7.18571 24.5035 7.18571 24.5035C7.18571 24.5035 8.8807 25.197 11.4571 25.4528C14.0335 25.7087 15.5251 24.8401 15.5251 24.8401Z" fill="white"/>
<path d="M12.7928 21.3188C12.7928 21.3188 12.2029 19.8509 10.6096 18.3629C9.01633 16.8749 7.00947 16.6056 7.00947 16.6056C7.00947 16.6056 7.72136 18.1879 9.41635 19.7702C11.1113 21.3524 12.7928 21.3188 12.7928 21.3188Z" fill="white"/>
<path d="M14.4946 22.1333C15.9861 22.7124 16.8065 23.5069 16.8065 23.5069C16.8065 23.5069 15.7014 23.9041 14.1149 23.2914C12.5216 22.6787 11.586 21.8371 11.586 21.8371C11.586 21.8371 13.003 21.5543 14.4946 22.1333Z" fill="white"/>
<path d="M20.7049 24.2948C20.7049 24.2948 19.8507 23.9447 18.5828 23.9918C17.315 24.0389 16.3726 24.7257 16.3726 24.7257C16.3726 24.7257 17.3217 25.0691 18.6777 25.0287C20.0269 24.9748 20.7049 24.2948 20.7049 24.2948Z" fill="white"/>
<path d="M9.51125 14.4173C10.7588 16.2016 11.0367 17.7637 11.0367 17.7637C11.0367 17.7637 9.39599 17.4607 8.06034 15.5687C6.73147 13.6699 6.35857 11.9665 6.35857 11.9665C6.35857 11.9665 8.26374 12.6398 9.51125 14.4173Z" fill="white"/>
<path d="M9.46383 12.9965C9.46383 12.9965 9.76893 11.4075 9.25365 9.27985C8.73837 7.1522 7.23322 5.84598 7.23322 5.84598C7.23322 5.84598 6.9688 7.59658 7.5112 9.86563C8.06038 12.1347 9.46383 12.9965 9.46383 12.9965Z" fill="white"/>
<path d="M32.4207 23.4666C29.885 23.7628 28.4748 24.8401 28.4748 24.8401C28.4748 24.8401 29.9664 25.7087 32.5428 25.4528C35.1191 25.197 36.8141 24.5035 36.8141 24.5035C36.8141 24.5035 34.9361 23.1703 32.4207 23.4666Z" fill="white"/>
<path d="M32.4276 22.6249C32.4276 22.6249 33.6954 21.3254 36.0548 20.4299C38.4143 19.5344 40.7059 20.0865 40.7059 20.0865C40.7059 20.0865 39.255 21.4533 36.7396 22.4094C34.2243 23.3655 32.4276 22.6249 32.4276 22.6249Z" fill="white"/>
<path d="M38.9024 15.9524C36.9362 17.7569 36.1972 19.5479 36.1972 19.5479C36.1972 19.5479 38.2515 19.6085 40.3466 17.6896C42.4416 15.7706 43.3297 13.8382 43.3297 13.8382C43.3297 13.8382 40.8686 14.148 38.9024 15.9524Z" fill="white"/>
<path d="M36.9362 16.1071C36.9362 16.1071 37.1803 14.1747 38.6041 11.9259C40.0279 9.67703 42.3127 8.74787 42.3127 8.74787C42.3127 8.74787 41.9602 10.8553 40.4414 13.2523C38.9295 15.6493 36.9362 16.1071 36.9362 16.1071Z" fill="white"/>
<path d="M38.1091 7.1186C36.9158 9.52905 36.848 11.5018 36.848 11.5018C36.848 11.5018 38.7532 10.8555 40.0278 8.29016C41.2957 5.72486 41.4584 3.56353 41.4584 3.56353C41.4584 3.56353 39.3024 4.71489 38.1091 7.1186Z" fill="white"/>
<path d="M31.2071 21.3188C31.2071 21.3188 31.797 19.8509 33.3903 18.3629C34.9836 16.8749 36.9904 16.6056 36.9904 16.6056C36.9904 16.6056 36.2785 18.1879 34.5835 19.7702C32.8886 21.3524 31.2071 21.3188 31.2071 21.3188Z" fill="white"/>
<path d="M29.5053 22.1333C28.0137 22.7124 27.1934 23.5069 27.1934 23.5069C27.1934 23.5069 28.2985 23.9041 29.885 23.2914C31.4783 22.6787 32.4139 21.8371 32.4139 21.8371C32.4139 21.8371 30.9969 21.5543 29.5053 22.1333Z" fill="white"/>
<path d="M23.295 24.2948C23.295 24.2948 24.1492 23.9447 25.4171 23.9918C26.6849 24.0389 27.6273 24.7257 27.6273 24.7257C27.6273 24.7257 26.6782 25.0691 25.3222 25.0287C23.973 24.9748 23.295 24.2948 23.295 24.2948Z" fill="white"/>
<path d="M34.4886 14.4173C33.2411 16.2016 32.9631 17.7637 32.9631 17.7637C32.9631 17.7637 34.6039 17.4607 35.9395 15.5687C37.2684 13.6699 37.6413 11.9665 37.6413 11.9665C37.6413 11.9665 35.7361 12.6398 34.4886 14.4173Z" fill="white"/>
<path d="M34.5361 12.9965C34.5361 12.9965 34.231 11.4075 34.7462 9.27985C35.2615 7.1522 36.7667 5.84598 36.7667 5.84598C36.7667 5.84598 37.0311 7.59658 36.4887 9.86563C35.9395 12.1347 34.5361 12.9965 34.5361 12.9965Z" fill="white"/>
<path d="M21.9999 25.493C22.3525 25.493 22.644 25.2102 22.644 24.8534C22.644 24.5033 22.3525 24.2137 21.9999 24.2137C21.6474 24.2137 21.3558 24.4965 21.3558 24.8534C21.3558 25.2035 21.6474 25.493 21.9999 25.493Z" fill="white"/>
</svg>
