<svg width="58" height="70" viewBox="0 0 58 70" fill="none" xmlns="http://www.w3.org/2000/svg">
<path d="M4.99973 68H45.3331M25.1664 53.3333C30.229 53.3333 34.3331 51.6917 34.3331 49.6667C34.3331 47.6416 30.229 46 25.1664 46C20.1038 46 15.9997 47.6416 15.9997 49.6667C15.9997 51.6917 20.1038 53.3333 25.1664 53.3333ZM25.1664 53.3333C20.1038 53.3333 15.9997 54.975 15.9997 57C15.9997 59.025 20.1038 60.6667 25.1664 60.6667M25.1664 53.3333C30.229 53.3333 34.3331 54.975 34.3331 57C34.3331 59.025 30.229 60.6667 25.1664 60.6667M25.1664 60.6667C20.1038 60.6667 15.9997 62.3083 15.9997 64.3333C15.9997 66.3584 20.1038 68 25.1664 68C30.229 68 34.3331 66.3584 34.3331 64.3333C34.3331 62.3083 30.229 60.6667 25.1664 60.6667ZM3.1668 16.6667C-0.500359 27.1429 0.447698 46 25.2856 46C50.1236 46 48.6012 28.7143 45.3331 20.3333L48.9997 16.6667L56.3331 13L48.9997 9.33333C48.455 6.71429 44.5359 2 37.9996 2C29.8293 2 28.833 8.02381 28.833 11.1667C28.833 14.3095 32.7389 27.6667 19.6663 27.6667C9.20823 27.6667 4.80089 19.8095 3.1668 16.6667Z" stroke="#E5FF78" stroke-width="2.5" stroke-linecap="round" stroke-linejoin="round"/>
</svg>
