<svg width="88" height="88" viewBox="0 0 88 88" fill="none" xmlns="http://www.w3.org/2000/svg">
<path d="M7.33301 59.6033L10.0179 62.8016C13.5977 67.066 19.4017 67.066 22.9815 62.8016L23.7679 61.8649C27.3477 57.6005 33.1517 57.6005 36.7315 61.8649L37.5179 62.8016C41.0977 67.066 46.9017 67.066 50.4815 62.8016L51.2679 61.8649C54.8477 57.6005 60.6517 57.6005 64.2315 61.8649L65.0179 62.8016C68.5977 67.066 74.4017 67.066 77.9815 62.8016L80.6663 59.6033M7.33301 74.27L10.0179 77.4683C13.5977 81.7327 19.4017 81.7327 22.9815 77.4683L23.7679 76.5315C27.3477 72.2671 33.1517 72.2671 36.7315 76.5315L37.5179 77.4683C41.0977 81.7327 46.9017 81.7327 50.4815 77.4683L51.2679 76.5315C54.8477 72.2671 60.6517 72.2671 64.2315 76.5315L65.0179 77.4683C68.5977 81.7327 74.4017 81.7327 77.9815 77.4683L80.6663 74.27M43.6381 51.8613L36.9951 27.0692M36.9951 27.0692L15.7447 32.7632C13.8467 25.6798 19.4998 12.777 32.25 9.36058C45.0003 5.94417 56.3474 14.2917 58.2454 21.3752L36.9951 27.0692Z" stroke="#E5FF78" stroke-width="2.5" stroke-linecap="round" stroke-linejoin="round"/>
</svg>
