<svg width="71" height="73" viewBox="0 0 71 73" fill="none" xmlns="http://www.w3.org/2000/svg">
<path d="M35.7654 62.361H53.9798C65.4549 62.361 72.5427 50.0969 66.6388 40.457L62.0852 33.0218M35.7654 62.361L44.9321 53.1944M35.7654 62.361L44.9321 71.5277M14.5876 24.8023L5.16119 40.3878C-0.7774 50.2066 6.04856 62.6184 17.3525 62.5556L26.0712 62.5071M14.5876 24.8023L17.6873 37.3899M14.5876 24.8023L2 27.902M57.426 25.636L48.6132 9.6955C43.0612 -0.346966 28.8988 -0.616078 23.3188 9.21485L19.015 16.7974M57.426 25.636L44.9685 22.0489M57.426 25.636L61.0131 13.1786" stroke="#E5FF78" stroke-width="2.5" stroke-linecap="round" stroke-linejoin="round"/>
</svg>
