<svg width="56" height="56" viewBox="0 0 56 56" fill="none" xmlns="http://www.w3.org/2000/svg">
<path d="M42 20.325C34.6409 20.7449 28.8773 24.4999 21 24.4999C12.8333 24.4999 7 20.9999 7 20.9999V48.9999H29.1667M42 20.325C44.1639 20.2015 46.4658 20.3664 49 20.9999V32.6667M42 20.325V7M14 7V23.3333M28 7V23.3333M35.6778 50.5789C38.2875 50.9448 42.392 52.7977 46.8526 48.3138C50.1982 44.9509 49.4392 39.7351 49.0598 37.1273C46.45 36.7614 41.2304 36.0295 37.8849 39.3924C33.4242 43.8763 35.2983 47.9711 35.6778 50.5789ZM35.6778 50.5789L32.3604 53.6666" stroke="#A4A5A0" stroke-width="2.5" stroke-linecap="round" stroke-linejoin="round"/>
</svg>
