<svg width="52" height="14" viewBox="0 0 52 14" fill="none" xmlns="http://www.w3.org/2000/svg">
<path d="M29.4334 4.66965C29.4334 3.10689 29.4594 1.6519 29.5371 0.304688L25.5724 1.08607V1.46329L25.9611 1.51718C26.2462 1.54412 26.4276 1.6519 26.5312 1.81356C26.6349 2.00217 26.7126 2.27162 26.7644 2.67578C26.8163 3.45716 26.8681 5.23548 26.8422 8.03768C26.8422 10.8129 26.8163 12.5643 26.7644 13.2379C28.1896 13.5612 29.3039 13.696 30.1331 13.696C31.6879 13.696 32.9058 13.2379 33.7868 12.2949C34.6678 11.3788 35.1343 10.0854 35.1343 8.49573C35.1343 7.22935 34.7974 6.17853 34.1237 5.34326C33.4499 4.50799 32.5948 4.10382 31.5842 4.10382C30.9105 4.10382 30.2108 4.29243 29.4334 4.66965ZM29.5112 12.9685C29.4594 12.1063 29.4075 9.51961 29.4075 5.28937C29.6407 5.20854 29.9517 5.15465 30.3404 5.15465C30.9623 5.15465 31.4546 5.47798 31.8174 6.15159C32.1802 6.82519 32.3616 7.63352 32.3616 8.6574C32.3616 9.92378 32.1543 10.9477 31.7397 11.8099C31.3251 12.6451 30.8068 13.0763 30.159 13.0763C29.9517 13.0224 29.7444 12.9954 29.5112 12.9685ZM10.6985 0.57413H0.333374V1.11301L0.877543 1.1669C1.29215 1.24774 1.57719 1.4094 1.75858 1.6519C1.93997 1.92134 2.04362 2.35245 2.06953 2.94522C2.27683 5.8552 2.27683 8.57657 2.06953 11.0824C2.01771 11.6752 1.91405 12.1063 1.75858 12.3757C1.57719 12.6451 1.29215 12.8068 0.877543 12.8607L0.333374 12.9415V13.4804H7.01888V12.9415L6.31923 12.8876C6.14851 12.8728 5.98244 12.8222 5.83102 12.7388C5.67961 12.6555 5.54599 12.5411 5.4382 12.4026C5.25681 12.1332 5.15315 11.7021 5.12724 11.1093C5.0495 10.0316 4.99768 8.79212 4.99768 7.41796L6.39697 7.44491C7.14844 7.47185 7.6667 8.06463 7.92582 9.25017H8.44408V4.85826H7.92582C7.6667 6.01686 7.17435 6.60964 6.39697 6.63658L4.99768 6.66353C4.99768 4.23854 5.0495 2.51411 5.12724 1.46329H7.17435C8.62547 1.46329 9.61016 2.43328 10.1802 4.37327L10.8021 4.18466L10.6985 0.57413ZM9.48059 8.87295C9.48059 10.2741 9.86928 11.4327 10.6208 12.3488C11.3722 13.2649 12.4865 13.696 13.8858 13.696C15.2851 13.696 16.4252 13.2379 17.2544 12.2949C18.0836 11.3788 18.4723 10.2202 18.4723 8.81906C18.4723 7.41796 18.0836 6.25936 17.3322 5.34326C16.5807 4.42716 15.4664 3.99605 14.0672 3.99605C12.6679 3.99605 11.5277 4.4541 10.6985 5.39715C9.86928 6.31325 9.48059 7.47185 9.48059 8.87295ZM15.2591 5.80131C15.5701 6.58269 15.6997 7.60657 15.6997 8.84601C15.6997 11.7021 15.1296 13.1032 14.0153 13.1032C13.4452 13.1032 13.0047 12.699 12.6938 11.8907C12.3828 11.0824 12.2533 10.0585 12.2533 8.84601C12.2533 6.01686 12.8233 4.61576 13.9376 4.61576C14.5077 4.58882 14.9482 4.99298 15.2591 5.80131ZM37.1555 12.3488C38.0106 13.2379 39.0989 13.696 40.3946 13.696C41.1979 13.696 41.8975 13.5343 42.5194 13.184C43.1413 12.8607 43.6337 12.4565 43.9705 11.9715L43.7114 11.6482C43.1413 12.1063 42.4935 12.3218 41.742 12.3218C40.7055 12.3218 39.9022 11.9715 39.358 11.244C38.788 10.5166 38.5288 9.60045 38.5807 8.4149H44.126C44.126 7.12158 43.815 6.07075 43.1672 5.23548C42.5194 4.42715 41.6125 4.02299 40.4464 4.02299C38.9953 4.02299 37.881 4.50799 37.0777 5.45104C36.2744 6.39408 35.8857 7.55269 35.8857 8.92684C35.8857 10.3279 36.3003 11.4596 37.1555 12.3488ZM39.073 5.58576C39.358 4.9391 39.7208 4.61576 40.2132 4.61576C40.9906 4.61576 41.3792 5.63964 41.3792 7.71435L38.6325 7.76824C38.6584 6.95991 38.788 6.23242 39.073 5.58576ZM51.0965 4.50799C50.3969 4.18466 49.5159 3.99605 48.4534 3.99605C47.3651 3.99605 46.51 4.29243 45.8622 4.85826C45.2143 5.42409 44.8775 6.12464 44.8775 6.95991C44.8775 7.68741 45.0848 8.25323 45.4735 8.6574C45.8622 9.06156 46.4841 9.41184 47.2874 9.70822C48.0129 9.97767 48.5312 10.2471 48.7903 10.4896C49.0494 10.759 49.2049 11.0554 49.2049 11.4596C49.2049 11.8368 49.0753 12.1871 48.7903 12.4565C48.5312 12.7529 48.1684 12.8876 47.702 12.8876C46.5618 12.8876 45.7067 12.0254 45.1107 10.301L44.6702 10.4357L44.7738 13.1301C45.7067 13.5074 46.7432 13.696 47.8834 13.696C49.0753 13.696 49.9823 13.4265 50.656 12.8607C51.3298 12.3218 51.6666 11.5404 51.6666 10.5704C51.6666 9.92378 51.5112 9.38489 51.1743 8.98073C50.8374 8.57657 50.2932 8.22629 49.5159 7.90296C48.6607 7.57963 48.0647 7.28324 47.7538 7.0138C47.4428 6.74436 47.2874 6.42103 47.2874 6.01686C47.2874 5.6127 47.391 5.28937 47.6242 5.01993C47.8574 4.75049 48.1425 4.64271 48.5053 4.64271C49.5418 4.64271 50.2933 5.42409 50.7597 6.95991L51.2002 6.82519L51.0965 4.50799ZM26.1684 4.26549C25.8057 4.07688 25.417 3.99605 24.9764 3.99605C24.5359 3.99605 24.0954 4.18466 23.6031 4.56188C23.1107 4.93909 22.7479 5.45104 22.4629 6.15159L22.4888 3.99605L18.5501 4.80437V5.18159L18.9388 5.20854C19.4311 5.26243 19.7161 5.66659 19.768 6.39408C19.9234 8.06463 19.9234 9.84295 19.768 11.729C19.7161 12.4565 19.4311 12.8338 18.9388 12.9146L18.5501 12.9685V13.4804H24.0436V12.9685L23.3439 12.9146C22.8516 12.8607 22.5666 12.4565 22.5147 11.729C22.3593 10.1663 22.3333 8.49573 22.4629 6.7713C22.6184 6.50186 22.9552 6.3402 23.4735 6.28631C23.9918 6.23242 24.5878 6.39408 25.2097 6.7713L26.1684 4.26549Z" fill="white"/>
</svg>
