<svg width="56" height="56" viewBox="0 0 56 56" fill="none" xmlns="http://www.w3.org/2000/svg">
<path d="M27.1473 28.8527L35.6646 37.3699M27.1473 28.8527L40.775 15.225M27.1473 28.8527L18.6301 20.3354M35.6646 37.3699L44.1819 45.8872C39.0715 48.7263 27.488 53.0417 15.2231 40.7769C2.95826 28.512 7.27368 16.9285 10.1128 11.8181L18.6301 20.3354M35.6646 37.3699L40.775 15.225M40.775 15.225L18.6301 20.3354M40.775 15.225C42.6566 17.1066 45.7072 17.1066 47.5888 15.225C49.4704 13.3434 49.4704 10.2928 47.5888 8.41119C45.7072 6.5296 42.6566 6.5296 40.775 8.41119C38.8934 10.2928 38.8934 13.3434 40.775 15.225Z" stroke="#A4A5A0" stroke-width="2.5" stroke-linecap="round" stroke-linejoin="round"/>
</svg>
