<svg width="48" height="49" viewBox="0 0 48 49" fill="none" xmlns="http://www.w3.org/2000/svg">
<g filter="url(#filter0_b_2023_3029)">
<rect y="0.862305" width="48" height="48" rx="24" fill="white" fill-opacity="0.1"/>
<path d="M16.1925 23.7534C19.2932 22.4488 22.4023 21.1644 25.5196 19.9002C29.9607 18.1297 30.5787 17.8713 31.1791 17.8623C31.437 17.8704 31.6853 17.9624 31.8862 18.1243C32.1375 18.338 32.214 18.4734 32.2353 18.5927C32.255 18.7121 32.2531 19.0843 32.2318 19.2964C31.9912 21.7207 31.0774 27.3196 30.5483 30.038C30.3238 31.1868 29.882 31.5716 29.4545 31.6091C28.5266 31.6911 27.8211 31.0213 26.9217 30.4548C25.5144 29.5693 25.0441 29.2435 23.6796 28.3796C22.0994 27.3821 22.7495 27.0346 23.6492 26.1385C23.8844 25.9052 27.7855 22.3444 27.8442 22.02C27.8941 21.735 27.9121 21.6977 27.7838 21.5694C27.6537 21.4412 27.4988 21.4571 27.3991 21.4784C27.2566 21.5088 25.1083 22.8679 20.9506 25.558C20.3129 25.98 19.7357 26.185 19.2172 26.1743C18.6472 26.1617 17.5482 25.8644 16.7323 25.6095C15.7293 25.296 14.9332 25.1321 15.0044 24.6013C15.0401 24.325 15.4353 24.0419 16.1925 23.7534Z" fill="white"/>
</g>
<defs>
<filter id="filter0_b_2023_3029" x="-24" y="-23.1377" width="96" height="96" filterUnits="userSpaceOnUse" color-interpolation-filters="sRGB">
<feFlood flood-opacity="0" result="BackgroundImageFix"/>
<feGaussianBlur in="BackgroundImageFix" stdDeviation="12"/>
<feComposite in2="SourceAlpha" operator="in" result="effect1_backgroundBlur_2023_3029"/>
<feBlend mode="normal" in="SourceGraphic" in2="effect1_backgroundBlur_2023_3029" result="shape"/>
</filter>
</defs>
</svg>
