<svg width="196" height="45" viewBox="0 0 196 45" fill="none" xmlns="http://www.w3.org/2000/svg">
<path d="M0 5.1077C0 2.28679 2.28679 0 5.10769 0H43.6992C46.5201 0 48.8069 2.28679 48.8069 5.10769V23.0872L29.7949 11.6342L0 29.1284V5.1077Z" fill="white"/>
<path d="M0 32.6325L29.7949 18.1607V22.4171L0 34.9026V32.6325Z" fill="white"/>
<path d="M29.7949 30.9299L0 39.4427V37.1727L29.7949 26.3898V30.9299Z" fill="white"/>
<path d="M20.7145 41.4291V36.8889L0 41.4291V44.2667L20.7145 41.4291Z" fill="white"/>
<path d="M77.7916 7.09762H74.7631V18.7301C74.7631 20.6107 73.2391 22.1348 71.3585 22.1469C65.7338 22.1833 58.0041 22.2811 58.0041 22.2811V25.4607C58.0041 26.396 58.7585 27.1561 59.6938 27.1632L70.9171 27.248C75.6436 27.2837 79.4942 23.462 79.4942 18.7354V8.80019C79.4942 7.85989 78.7319 7.09762 77.7916 7.09762Z" fill="white"/>
<path d="M91.8039 15.0509V12.1145C92.9718 12.1145 94.13 12.1149 95.2827 12.1152C99.6975 12.1165 104.03 12.1178 108.503 12.0998V8.80019C108.503 7.85989 107.741 7.09762 106.8 7.09762H88.5982C87.6628 7.09762 86.9026 7.85223 86.8957 8.7876L86.7725 25.4353C86.7656 26.3805 87.5298 27.1504 88.4751 27.1504H106.884C107.791 27.1504 108.539 26.4398 108.559 25.5331C108.582 24.5462 108.585 23.3329 108.503 22.5762H91.8039V19.3447H103.535V15.0509H91.8039Z" fill="white"/>
<path d="M178.663 7.09762V15.6068L187.504 7.54232C187.818 7.25622 188.227 7.09762 188.651 7.09762H195.05L184.728 16.6355L195.972 26.106V27.298H189.692C189.303 27.298 188.926 27.1648 188.623 26.9207L178.663 18.8873V27.298H175.116C174.176 27.298 173.413 26.5357 173.413 25.5954V8.80019C173.413 7.85989 174.176 7.09762 175.116 7.09762H178.663Z" fill="white"/>
<path fill-rule="evenodd" clip-rule="evenodd" d="M140.107 27.3127L150.199 8.01128C150.493 7.44965 151.074 7.09762 151.708 7.09762H156.634C157.268 7.09762 157.849 7.44965 158.143 8.01129L168.235 27.3127H163.62C162.99 27.3127 162.411 26.9645 162.116 26.4076L160.71 23.7567H147.632L146.226 26.4076C145.931 26.9645 145.352 27.3127 144.722 27.3127H140.107ZM154.171 11.3504L149.932 19.3446H158.41L154.171 11.3504Z" fill="white"/>
<path d="M134.898 7.09762H131.87V18.7301C131.87 20.6107 130.346 22.1348 128.465 22.1469C122.841 22.1833 115.111 22.2811 115.111 22.2811V25.4607C115.111 26.396 115.865 27.1561 116.801 27.1632L128.024 27.248C132.75 27.2837 136.601 23.462 136.601 18.7354V8.80019C136.601 7.85989 135.839 7.09762 134.898 7.09762Z" fill="white"/>
<path d="M94.7166 36.8001C95.0121 36.9099 95.3309 36.9648 95.673 36.9648C96.0614 36.9648 96.4098 36.8973 96.718 36.7621C97.0305 36.627 97.2923 36.4307 97.5034 36.1731L96.8447 35.5651C96.6927 35.7424 96.5238 35.8754 96.338 35.9641C96.1522 36.0485 95.9495 36.0908 95.73 36.0908C95.5231 36.0908 95.333 36.057 95.1599 35.9894C94.9868 35.9219 94.8369 35.8248 94.7102 35.6981C94.5836 35.5714 94.4843 35.4215 94.4125 35.2484C94.345 35.0753 94.3112 34.8831 94.3112 34.672C94.3112 34.4609 94.345 34.2688 94.4125 34.0956C94.4843 33.9225 94.5836 33.7726 94.7102 33.646C94.8369 33.5193 94.9868 33.4222 95.1599 33.3546C95.333 33.287 95.5231 33.2533 95.73 33.2533C95.9495 33.2533 96.1522 33.2976 96.338 33.3863C96.5238 33.4707 96.6927 33.5995 96.8447 33.7726L97.5034 33.1646C97.2923 32.907 97.0305 32.7128 96.718 32.5819C96.4098 32.4468 96.0635 32.3792 95.6793 32.3792C95.333 32.3792 95.0142 32.4362 94.7229 32.5502C94.4315 32.66 94.1761 32.8183 93.9565 33.0252C93.7412 33.2322 93.5723 33.4749 93.4498 33.7536C93.3316 34.0323 93.2725 34.3384 93.2725 34.672C93.2725 35.0056 93.3316 35.3117 93.4498 35.5904C93.5723 35.8691 93.7412 36.1119 93.9565 36.3188C94.1719 36.5257 94.4252 36.6861 94.7166 36.8001Z" fill="white"/>
<path fill-rule="evenodd" clip-rule="evenodd" d="M159.436 36.7938C159.736 36.9078 160.061 36.9648 160.411 36.9648C160.758 36.9648 161.076 36.9078 161.368 36.7938C161.663 36.6798 161.919 36.5215 162.134 36.3188C162.354 36.1119 162.525 35.8691 162.647 35.5904C162.77 35.3075 162.831 35.0014 162.831 34.672C162.831 34.3384 162.77 34.0344 162.647 33.76C162.525 33.4813 162.354 33.2385 162.134 33.0316C161.919 32.8247 161.663 32.6642 161.368 32.5502C161.076 32.4362 160.755 32.3792 160.405 32.3792C160.059 32.3792 159.738 32.4362 159.442 32.5502C159.147 32.6642 158.889 32.8247 158.669 33.0316C158.45 33.2385 158.279 33.4813 158.156 33.76C158.038 34.0386 157.979 34.3427 157.979 34.672C157.979 35.0014 158.038 35.3054 158.156 35.5841C158.279 35.8628 158.448 36.1056 158.663 36.3125C158.883 36.5194 159.14 36.6798 159.436 36.7938ZM160.95 35.9894C160.785 36.057 160.603 36.0908 160.405 36.0908C160.206 36.0908 160.023 36.057 159.854 35.9894C159.685 35.9219 159.537 35.8248 159.411 35.6981C159.288 35.5714 159.191 35.4215 159.119 35.2484C159.052 35.071 159.018 34.8789 159.018 34.672C159.018 34.4609 159.052 34.2688 159.119 34.0956C159.191 33.9225 159.29 33.7726 159.417 33.646C159.544 33.5193 159.689 33.4222 159.854 33.3546C160.023 33.287 160.206 33.2533 160.405 33.2533C160.603 33.2533 160.787 33.287 160.956 33.3546C161.125 33.4222 161.271 33.5193 161.393 33.646C161.52 33.7726 161.617 33.9225 161.684 34.0956C161.756 34.2688 161.792 34.4609 161.792 34.672C161.792 34.8831 161.756 35.0753 161.684 35.2484C161.617 35.4215 161.52 35.5714 161.393 35.6981C161.266 35.8248 161.119 35.9219 160.95 35.9894Z" fill="white"/>
<path d="M187.203 36.9648C186.848 36.9648 186.508 36.9184 186.183 36.8255C185.858 36.7284 185.596 36.6038 185.398 36.4518L185.746 35.6791C185.936 35.8142 186.16 35.9261 186.418 36.0148C186.679 36.0992 186.943 36.1414 187.209 36.1414C187.412 36.1414 187.575 36.1224 187.697 36.0844C187.824 36.0422 187.917 35.9852 187.976 35.9134C188.035 35.8416 188.064 35.7593 188.064 35.6664C188.064 35.5482 188.018 35.4553 187.925 35.3877C187.832 35.3159 187.71 35.2589 187.558 35.2167C187.406 35.1703 187.237 35.128 187.051 35.09C186.869 35.0478 186.686 34.9972 186.5 34.938C186.318 34.8789 186.152 34.8029 186 34.71C185.848 34.6171 185.723 34.4947 185.626 34.3427C185.533 34.1907 185.486 33.9964 185.486 33.76C185.486 33.5066 185.554 33.2765 185.689 33.0696C185.829 32.8585 186.035 32.6917 186.31 32.5692C186.589 32.4425 186.937 32.3792 187.355 32.3792C187.634 32.3792 187.908 32.413 188.178 32.4806C188.449 32.5439 188.687 32.641 188.894 32.7719L188.577 33.5509C188.37 33.4327 188.164 33.3462 187.957 33.2913C187.75 33.2322 187.547 33.2026 187.349 33.2026C187.15 33.2026 186.988 33.2258 186.861 33.2723C186.734 33.3187 186.643 33.3799 186.589 33.4559C186.534 33.5277 186.506 33.6122 186.506 33.7093C186.506 33.8233 186.553 33.9162 186.646 33.988C186.738 34.0555 186.861 34.1104 187.013 34.1527C187.165 34.1949 187.332 34.2371 187.513 34.2793C187.699 34.3216 187.883 34.3701 188.064 34.425C188.25 34.4799 188.419 34.5538 188.571 34.6467C188.723 34.7396 188.845 34.862 188.938 35.014C189.035 35.166 189.084 35.3582 189.084 35.5904C189.084 35.8395 189.014 36.0676 188.875 36.2745C188.736 36.4814 188.527 36.6481 188.248 36.7748C187.974 36.9015 187.625 36.9648 187.203 36.9648Z" fill="white"/>
<path d="M193.555 33.2913H192.136V32.4552H196V33.2913H194.581V36.8888H193.555V33.2913Z" fill="white"/>
<path fill-rule="evenodd" clip-rule="evenodd" d="M179.377 32.4552L177.401 36.8888H178.452L178.847 35.9388H180.902L181.296 36.8888H182.373L180.39 32.4552H179.377ZM180.58 35.1597L179.877 33.4629L179.171 35.1597H180.58Z" fill="white"/>
<path d="M171.223 36.8888V32.4552H172.249V36.0528H174.472V36.8888H171.223Z" fill="white"/>
<path d="M152.409 36.8888V33.2913H150.991V32.4552H154.854V33.2913H153.435V36.8888H152.409Z" fill="white"/>
<path d="M140.873 33.2913V36.8888H141.899V33.2913H143.318V32.4552H139.454V33.2913H140.873Z" fill="white"/>
<path d="M133.633 36.8888V32.4552H134.659V36.0528H136.882V36.8888H133.633Z" fill="white"/>
<path d="M128.641 32.4552V36.8888H129.668V32.4552H128.641Z" fill="white"/>
<path d="M122.706 36.9648C122.077 36.9648 121.585 36.7896 121.23 36.4391C120.876 36.0887 120.698 35.5883 120.698 34.938V32.4552H121.725V34.9C121.725 35.3223 121.811 35.6263 121.984 35.8121C122.157 35.9979 122.4 36.0908 122.713 36.0908C123.025 36.0908 123.268 35.9979 123.441 35.8121C123.614 35.6263 123.701 35.3223 123.701 34.9V32.4552H124.714V34.938C124.714 35.5883 124.537 36.0887 124.182 36.4391C123.827 36.7896 123.335 36.9648 122.706 36.9648Z" fill="white"/>
<path fill-rule="evenodd" clip-rule="evenodd" d="M112.98 32.4552V36.8888H115.273C115.855 36.8888 116.297 36.7833 116.596 36.5721C116.896 36.3568 117.046 36.0591 117.046 35.6791C117.046 35.4215 116.985 35.2041 116.862 35.0267C116.744 34.8494 116.577 34.7164 116.362 34.6277C116.322 34.6106 116.282 34.5951 116.24 34.5812C116.412 34.4906 116.55 34.3688 116.653 34.216C116.767 34.0429 116.824 33.8402 116.824 33.608C116.824 33.2617 116.683 32.983 116.4 32.7719C116.121 32.5608 115.703 32.4552 115.146 32.4552H112.98ZM115.197 36.1161H114V35.0204H115.197C115.463 35.0204 115.663 35.0668 115.798 35.1597C115.938 35.2484 116.007 35.3856 116.007 35.5714C116.007 35.7614 115.938 35.9008 115.798 35.9894C115.663 36.0739 115.463 36.1161 115.197 36.1161ZM114 34.273H115.019C115.268 34.273 115.458 34.2308 115.589 34.1463C115.724 34.0576 115.792 33.9246 115.792 33.7473C115.792 33.5742 115.724 33.4454 115.589 33.3609C115.458 33.2723 115.268 33.2279 115.019 33.2279H114V34.273Z" fill="white"/>
<path d="M102.13 36.0654V35.0394H104.188V34.2413H102.13V33.2786H104.46V32.4552H101.11V36.8888H104.543V36.0654H102.13Z" fill="white"/>
<path fill-rule="evenodd" clip-rule="evenodd" d="M85.2675 36.8888L87.2437 32.4552H88.2571L90.2395 36.8888H89.1628L88.7692 35.9388H86.714L86.3189 36.8888H85.2675ZM87.7436 33.4629L88.4465 35.1597H87.038L87.7436 33.4629Z" fill="white"/>
<path fill-rule="evenodd" clip-rule="evenodd" d="M78.2792 32.4552V36.8888H79.3053V35.6537H80.1983C80.2059 35.6537 80.2134 35.6537 80.221 35.6537C80.2295 35.6536 80.238 35.6535 80.2466 35.6534L81.0977 36.8888H82.2061L81.2157 35.4675L81.2244 35.4637C81.5115 35.3371 81.7332 35.1555 81.8894 34.919C82.0457 34.6784 82.1238 34.3933 82.1238 34.064C82.1238 33.7304 82.0457 33.4433 81.8894 33.2026C81.7332 32.9619 81.5115 32.7782 81.2244 32.6516C80.9373 32.5207 80.5952 32.4552 80.1983 32.4552H78.2792ZM79.3053 34.8367H80.1413C80.458 34.8367 80.6945 34.7691 80.8507 34.634C81.0069 34.4947 81.0851 34.3047 81.0851 34.064C81.0851 33.8191 81.0069 33.6291 80.8507 33.4939C80.6945 33.3588 80.458 33.2913 80.1413 33.2913H79.3053V34.8367Z" fill="white"/>
<path d="M72.3688 36.8888V33.2913H70.9501V32.4552H74.8136V33.2913H73.3949V36.8888H72.3688Z" fill="white"/>
<path fill-rule="evenodd" clip-rule="evenodd" d="M60.3738 32.4552L58.3977 36.8888H59.4491L59.8442 35.9388H61.8994L62.2929 36.8888H63.3697L61.3872 32.4552H60.3738ZM61.5767 35.1597L60.8738 33.4629L60.1682 35.1597H61.5767Z" fill="white"/>
</svg>
