<svg width="118" height="54" viewBox="0 0 118 54" fill="none" xmlns="http://www.w3.org/2000/svg">
<path d="M0.875 23.0629V0H7.47769V23.0629C7.47769 25.3258 8.28367 27.2632 9.89558 28.8751C11.5075 30.487 13.4449 31.293 15.7078 31.293C17.9707 31.293 19.9081 30.487 21.52 28.8751C23.1629 27.2632 23.9844 25.3258 23.9844 23.0629C23.9844 20.8 23.1784 18.8626 21.5665 17.2507C19.9546 15.6078 18.0017 14.7863 15.7078 14.7863C13.3829 14.7863 11.4145 15.6387 9.80256 17.3437V9.43905C11.6625 8.63307 13.6309 8.23013 15.7078 8.23013C19.7996 8.23013 23.2869 9.68706 26.1698 12.6009C29.0837 15.4837 30.5406 18.9711 30.5406 23.0629C30.5406 27.1547 29.0837 30.6575 26.1698 33.5714C23.2869 36.4543 19.7996 37.8957 15.7078 37.8957C11.616 37.8957 8.11319 36.4543 5.1993 33.5714C2.31643 30.6575 0.875 27.1547 0.875 23.0629ZM41.7015 8.23013V37.8957H35.0988V8.23013H41.7015ZM71.6854 33.5714C68.8025 36.4543 65.3152 37.8957 61.223 37.8957C57.1315 37.8957 53.6287 36.4543 50.7148 33.5714C47.8319 30.6575 46.3905 27.1547 46.3905 23.0629C46.3905 18.9711 47.8319 15.4837 50.7148 12.6009C53.6287 9.68706 57.1315 8.23013 61.223 8.23013C65.3152 8.23013 68.8025 9.68706 71.6854 12.6009C74.5989 15.4837 76.056 18.9711 76.056 23.0629C76.056 27.1547 74.5989 30.6575 71.6854 33.5714ZM55.4111 28.8751C57.023 30.487 58.9604 31.293 61.223 31.293C63.4864 31.293 65.4238 30.487 67.0353 28.8751C68.6474 27.2632 69.4532 25.3258 69.4532 23.0629C69.4532 20.769 68.6474 18.8161 67.0353 17.2042C65.4238 15.5923 63.4864 14.7863 61.223 14.7863C58.9604 14.7863 57.023 15.5923 55.4111 17.2042C53.7992 18.8161 52.9932 20.769 52.9932 23.0629C52.9932 25.3258 53.7992 27.2632 55.4111 28.8751ZM98.7972 11.2059C100.843 9.22205 103.308 8.23013 106.19 8.23013C109.166 8.23013 111.693 9.28407 113.769 11.3919C115.878 13.4688 116.931 15.9798 116.931 18.9246V37.8957H110.328V18.9246C110.328 17.7777 109.926 16.8012 109.12 15.9953C108.313 15.1893 107.337 14.7863 106.19 14.7863C105.075 14.7863 104.113 15.1893 103.308 15.9953C102.502 16.8012 102.098 17.7777 102.098 18.9246V37.8957H95.4961V18.9246C95.4961 17.7777 95.0926 16.8012 94.2869 15.9953C93.4811 15.1893 92.5045 14.7863 91.3575 14.7863C90.2417 14.7863 89.2803 15.1893 88.4746 15.9953C87.6688 16.8012 87.266 17.7777 87.266 18.9246V37.8957H80.6632V18.9246C80.6632 15.9798 81.7015 13.4688 83.7781 11.3919C85.8864 9.28407 88.4129 8.23013 91.3575 8.23013C94.2716 8.23013 96.7511 9.22205 98.7972 11.2059Z" fill="white"/>
<path d="M73.9481 46.0743V51.043H75.1246V46.0743H76.6894V45.0234H75.1246V44.5437C75.1246 44.3229 75.1512 44.1363 75.2045 43.984C75.2578 43.8241 75.3492 43.7061 75.4787 43.6299C75.6157 43.5462 75.8023 43.5043 76.0384 43.5043H76.6894V42.4648H75.9013C75.4368 42.4648 75.0598 42.5334 74.7705 42.6704C74.4887 42.8075 74.2793 43.0207 74.1423 43.3101C74.0128 43.5918 73.9481 43.9612 73.9481 44.4181V45.0234H72.9886V46.0743H73.9481Z" fill="white"/>
<path d="M3.74735 44.2239C3.51891 44.2239 3.33234 44.1553 3.18766 44.0183C3.05059 43.8736 2.98206 43.6908 2.98206 43.47C2.98206 43.2492 3.0544 43.0702 3.19908 42.9332C3.34377 42.7885 3.52652 42.7161 3.74735 42.7161C3.95296 42.7161 4.13191 42.7885 4.2842 42.9332C4.44412 43.0702 4.52407 43.2492 4.52407 43.47C4.52407 43.6908 4.44792 43.8736 4.29563 44.0183C4.15094 44.1553 3.96819 44.2239 3.74735 44.2239Z" fill="white"/>
<path d="M0.875 42.9674V51.043H2.0515V42.9674H0.875Z" fill="white"/>
<path d="M3.16482 45.0234V51.043H4.34131V45.0234H3.16482Z" fill="white"/>
<path d="M4.79214 45.0234L7.04233 51.043H8.64146L10.8917 45.0234H9.56666L7.8419 49.9807L6.1057 45.0234H4.79214Z" fill="white"/>
<path d="M11.3139 51.043V45.0234H12.4904V51.043H11.3139Z" fill="white"/>
<path d="M11.3368 44.0183C11.4814 44.1553 11.668 44.2239 11.8965 44.2239C12.1173 44.2239 12.3 44.1553 12.4447 44.0183C12.597 43.8736 12.6732 43.6908 12.6732 43.47C12.6732 43.2492 12.5932 43.0702 12.4333 42.9332C12.281 42.7885 12.1021 42.7161 11.8965 42.7161C11.6756 42.7161 11.4929 42.7885 11.3482 42.9332C11.2035 43.0702 11.1312 43.2492 11.1312 43.47C11.1312 43.6908 11.1997 43.8736 11.3368 44.0183Z" fill="white"/>
<path d="M13.6037 51.043V45.0234H14.7231L14.7802 45.8687C14.9325 45.6479 15.1153 45.4727 15.3285 45.3433C15.5417 45.2062 15.7702 45.1072 16.0138 45.0463C16.2575 44.9778 16.4936 44.9435 16.722 44.9435C17.3008 44.9435 17.7538 45.0691 18.0813 45.3204C18.4163 45.5641 18.6524 45.8953 18.7895 46.3142C18.9341 46.7254 19.0065 47.1937 19.0065 47.7191V51.043H17.8186V47.959C17.8186 47.7153 17.8033 47.4754 17.7729 47.2394C17.7424 47.0033 17.6777 46.7939 17.5787 46.6111C17.4873 46.4208 17.3541 46.2723 17.1789 46.1657C17.0038 46.0514 16.7677 45.9943 16.4707 45.9943C16.1052 45.9943 15.7968 46.0933 15.5455 46.2913C15.2942 46.4893 15.1039 46.7558 14.9744 47.0909C14.845 47.4259 14.7802 47.8029 14.7802 48.2217V51.043H13.6037Z" fill="white"/>
<path fill-rule="evenodd" clip-rule="evenodd" d="M21.5845 53.5673C21.9501 53.7044 22.346 53.7729 22.7725 53.7729C23.4273 53.7729 23.9642 53.6511 24.383 53.4074C24.8018 53.1637 25.1102 52.8135 25.3082 52.3566C25.5062 51.9073 25.6052 51.3742 25.6052 50.7574V45.0234H24.4972L24.4287 45.7316C24.2079 45.4575 23.9299 45.2595 23.5949 45.1377C23.2598 45.0082 22.9133 44.9435 22.5554 44.9435C21.9386 44.9435 21.4284 45.0844 21.0249 45.3661C20.6213 45.6402 20.3205 46.0134 20.1225 46.4855C19.9321 46.9576 19.8369 47.483 19.8369 48.0618C19.8369 48.6253 19.9283 49.1393 20.1111 49.6038C20.3014 50.0607 20.5908 50.4262 20.9792 50.7003C21.3675 50.9745 21.8701 51.1115 22.4869 51.1115C22.7382 51.1115 22.9819 51.0849 23.2179 51.0316C23.4616 50.9707 23.6901 50.8717 23.9033 50.7346C24.1165 50.5975 24.2878 50.4186 24.4173 50.1977V50.8945C24.4173 51.2372 24.364 51.5418 24.2574 51.8083C24.1584 52.0824 23.9908 52.2995 23.7548 52.4594C23.5187 52.6193 23.2065 52.6992 22.8182 52.6992C22.6125 52.6992 22.4069 52.6726 22.2013 52.6193C21.9957 52.566 21.8168 52.4746 21.6645 52.3451C21.5122 52.2233 21.4094 52.0596 21.3561 51.854H20.1339C20.2253 52.2956 20.3966 52.6574 20.6479 52.9391C20.9068 53.2285 21.219 53.4379 21.5845 53.5673ZM23.652 49.7865C23.4007 49.9693 23.0847 50.0607 22.7039 50.0607C22.3003 50.0607 21.9729 49.9731 21.7216 49.798C21.4779 49.6228 21.299 49.383 21.1848 49.0784C21.0705 48.7738 21.0134 48.4311 21.0134 48.0504C21.0134 47.6772 21.0667 47.3384 21.1733 47.0338C21.2876 46.7216 21.4665 46.4741 21.7102 46.2913C21.9539 46.1009 22.2813 46.0058 22.6925 46.0058C23.0885 46.0058 23.4121 46.0933 23.6634 46.2685C23.9147 46.4436 24.1051 46.6835 24.2345 46.9881C24.364 47.2851 24.4287 47.6239 24.4287 48.0047C24.4287 48.3778 24.364 48.7205 24.2345 49.0327C24.1051 49.3449 23.9109 49.5962 23.652 49.7865Z" fill="white"/>
<path fill-rule="evenodd" clip-rule="evenodd" d="M31.9302 51.1115C31.3286 51.1115 30.8299 50.9783 30.4339 50.7118C30.0455 50.4376 29.7524 50.0683 29.5544 49.6038C29.364 49.1393 29.2688 48.6177 29.2688 48.0389C29.2688 47.4526 29.3678 46.9272 29.5658 46.4627C29.7638 45.9905 30.0646 45.6212 30.4682 45.3547C30.8717 45.0806 31.3819 44.9435 31.9987 44.9435C32.2272 44.9435 32.4556 44.9701 32.6841 45.0234C32.9201 45.0767 33.1372 45.1605 33.3352 45.2747C33.5408 45.3813 33.7159 45.526 33.8606 45.7088V42.9674H35.0371V51.043H33.9063L33.8606 50.2206C33.7235 50.4262 33.5522 50.5975 33.3466 50.7346C33.1486 50.8641 32.9278 50.9592 32.6841 51.0202C32.4404 51.0811 32.1891 51.1115 31.9302 51.1115ZM32.1244 50.0607C32.5127 50.0607 32.8326 49.9655 33.0839 49.7751C33.3428 49.5848 33.5369 49.3335 33.6664 49.0213C33.7959 48.709 33.8606 48.3702 33.8606 48.0047C33.8606 47.6315 33.7959 47.2965 33.6664 46.9995C33.5446 46.6949 33.3542 46.455 33.0953 46.2799C32.844 46.0971 32.5204 46.0058 32.1244 46.0058C31.7132 46.0058 31.3857 46.1009 31.1421 46.2913C30.8984 46.4741 30.7194 46.7216 30.6052 47.0338C30.4986 47.346 30.4453 47.6886 30.4453 48.0618C30.4453 48.3359 30.4758 48.5948 30.5367 48.8385C30.5976 49.0746 30.6928 49.2878 30.8222 49.4781C30.9593 49.6609 31.1345 49.8056 31.3477 49.9122C31.5609 50.0112 31.8198 50.0607 32.1244 50.0607Z" fill="white"/>
<path d="M36.1374 45.0234V51.043H37.3139V45.0234H36.1374Z" fill="white"/>
<path d="M36.7199 44.2239C36.4915 44.2239 36.3049 44.1553 36.1602 44.0183C36.0231 43.8736 35.9546 43.6908 35.9546 43.47C35.9546 43.2492 36.027 43.0702 36.1716 42.9332C36.3163 42.7885 36.4991 42.7161 36.7199 42.7161C36.9255 42.7161 37.1045 42.7885 37.2568 42.9332C37.4167 43.0702 37.4966 43.2492 37.4966 43.47C37.4966 43.6908 37.4205 43.8736 37.2682 44.0183C37.1235 44.1553 36.9407 44.2239 36.7199 44.2239Z" fill="white"/>
<path d="M39.8321 51.0316C40.1139 51.0849 40.3956 51.1115 40.6774 51.1115C40.9591 51.1115 41.2447 51.0849 41.5341 51.0316C41.831 50.9783 42.0976 50.8831 42.3336 50.746C42.5773 50.6089 42.7715 50.4262 42.9162 50.1977C43.0608 49.9617 43.1332 49.6609 43.1332 49.2954C43.1332 49.0136 43.0837 48.7738 42.9847 48.5758C42.8933 48.3778 42.7562 48.2141 42.5735 48.0846C42.3983 47.9552 42.1851 47.8562 41.9338 47.7876C41.7435 47.7267 41.496 47.6696 41.1914 47.6163C40.8944 47.563 40.6165 47.5059 40.3576 47.445C40.1748 47.4069 40.0111 47.3574 39.8664 47.2965C39.7293 47.2356 39.6227 47.1556 39.5466 47.0566C39.478 46.9576 39.4438 46.8358 39.4438 46.6911C39.4438 46.5388 39.4818 46.417 39.558 46.3256C39.6341 46.2266 39.7331 46.1504 39.855 46.0971C39.9768 46.0438 40.1025 46.0096 40.2319 45.9943C40.369 45.9791 40.4946 45.9715 40.6088 45.9715C40.9363 45.9715 41.2066 46.0362 41.4198 46.1657C41.6407 46.2875 41.7739 46.4512 41.8196 46.6568H42.9276C42.8895 46.2761 42.7639 45.9601 42.5506 45.7088C42.3374 45.4575 42.0671 45.2671 41.7397 45.1377C41.4122 45.0082 41.0467 44.9435 40.6431 44.9435C40.3309 44.9435 40.0339 44.9778 39.7522 45.0463C39.4704 45.1148 39.2191 45.2214 38.9983 45.3661C38.7775 45.5032 38.6023 45.6821 38.4729 45.903C38.351 46.1238 38.2901 46.3903 38.2901 46.7025C38.2901 46.8548 38.3053 46.9957 38.3358 47.1251C38.3663 47.2546 38.412 47.3764 38.4729 47.4907C38.5338 47.6049 38.6061 47.7077 38.6899 47.7991C38.7737 47.8828 38.8688 47.959 38.9755 48.0275C39.2724 48.2103 39.6151 48.3397 40.0035 48.4159C40.3994 48.4844 40.7688 48.5567 41.1114 48.6329C41.2866 48.6634 41.4351 48.709 41.5569 48.77C41.6864 48.8233 41.7853 48.8956 41.8539 48.987C41.93 49.0784 41.9681 49.1926 41.9681 49.3297C41.9681 49.5048 41.9262 49.6457 41.8425 49.7523C41.7587 49.8513 41.6521 49.9274 41.5226 49.9807C41.3932 50.034 41.2561 50.0683 41.1114 50.0835C40.9744 50.0988 40.8487 50.1064 40.7345 50.1064C40.5441 50.1064 40.3499 50.0797 40.152 50.0264C39.9616 49.9731 39.7864 49.8893 39.6265 49.7751C39.4742 49.6609 39.3676 49.5124 39.3067 49.3297H38.1074C38.153 49.6723 38.2597 49.9617 38.4272 50.1977C38.5947 50.4262 38.8003 50.6089 39.044 50.746C39.2877 50.8831 39.5504 50.9783 39.8321 51.0316Z" fill="white"/>
<path d="M46.3314 51.043C45.8593 51.043 45.4748 50.9783 45.1778 50.8488C44.8808 50.7118 44.66 50.4985 44.5153 50.2092C44.3782 49.9198 44.3097 49.5429 44.3097 49.0784V46.0743H43.3616V45.0234H44.3097V43.2872H45.4862V45.0234H47.0053V46.0743H45.4862V48.9299C45.4862 49.2878 45.5509 49.5581 45.6804 49.7409C45.8098 49.916 46.0801 50.0036 46.4913 50.0036H46.9597V51.043H46.3314Z" fill="white"/>
<path d="M47.6694 45.0234V51.043H48.8459V48.1417C48.8459 47.7381 48.9107 47.3802 49.0401 47.068C49.1772 46.7558 49.3866 46.5121 49.6684 46.337C49.9577 46.1619 50.3194 46.0743 50.7535 46.0743H51.119V44.9435H50.7535C50.4946 44.9435 50.2471 44.9739 50.011 45.0349C49.775 45.0958 49.5579 45.1948 49.3599 45.3318C49.162 45.4689 48.9868 45.6555 48.8345 45.8915L48.7774 45.0234H47.6694Z" fill="white"/>
<path d="M51.6659 51.043V45.0234H52.8424V51.043H51.6659Z" fill="white"/>
<path d="M51.6888 44.0183C51.8334 44.1553 52.02 44.2239 52.2485 44.2239C52.4693 44.2239 52.652 44.1553 52.7967 44.0183C52.949 43.8736 53.0252 43.6908 53.0252 43.47C53.0252 43.2492 52.9452 43.0702 52.7853 42.9332C52.633 42.7885 52.4541 42.7161 52.2485 42.7161C52.0276 42.7161 51.8449 42.7885 51.7002 42.9332C51.5555 43.0702 51.4832 43.2492 51.4832 43.47C51.4832 43.6908 51.5517 43.8736 51.6888 44.0183Z" fill="white"/>
<path d="M56.5714 51.1115C55.9394 51.1115 55.4102 50.9821 54.9837 50.7232C54.5649 50.4643 54.2489 50.1064 54.0357 49.6495C53.8301 49.185 53.7273 48.6519 53.7273 48.0504C53.7273 47.4564 53.8339 46.9272 54.0471 46.4627C54.2679 45.9905 54.5954 45.6212 55.0294 45.3547C55.4711 45.0806 56.0156 44.9435 56.6628 44.9435C57.1045 44.9435 57.4966 45.0196 57.8393 45.1719C58.182 45.3166 58.4599 45.5336 58.6731 45.823C58.894 46.1048 59.0387 46.4588 59.1072 46.8853H57.9307C57.8317 46.5731 57.6642 46.3484 57.4281 46.2114C57.1997 46.0743 56.9293 46.0058 56.6171 46.0058C56.1983 46.0058 55.8633 46.1048 55.612 46.3027C55.3683 46.5007 55.1893 46.7558 55.0751 47.068C54.9609 47.3802 54.9038 47.7077 54.9038 48.0504C54.9038 48.4083 54.9609 48.7395 55.0751 49.0441C55.197 49.3487 55.3797 49.5962 55.6234 49.7865C55.8747 49.9693 56.2021 50.0607 56.6057 50.0607C56.9103 50.0607 57.1921 49.996 57.451 49.8665C57.7099 49.7294 57.8774 49.501 57.9535 49.1812H59.1643C59.0958 49.6228 58.9359 49.9883 58.6846 50.2777C58.4333 50.5595 58.1211 50.7689 57.7479 50.9059C57.3824 51.043 56.9903 51.1115 56.5714 51.1115Z" fill="white"/>
<path d="M60.8967 50.5861C61.1784 50.9364 61.6429 51.1115 62.2902 51.1115C62.4653 51.1115 62.6367 51.0963 62.8042 51.0658C62.9717 51.0354 63.1316 50.9859 63.2839 50.9174C63.4438 50.8412 63.5961 50.746 63.7408 50.6318L63.2839 49.7523C63.2002 49.8284 63.0897 49.897 62.9527 49.9579C62.8232 50.0188 62.6709 50.0493 62.4958 50.0493C62.2673 50.0416 62.0922 49.9883 61.9704 49.8893C61.8485 49.7904 61.7648 49.6533 61.7191 49.4781C61.681 49.303 61.662 49.1088 61.662 48.8956V46.0743H63.5009V45.0234H61.662V43.2758H60.4855V45.0234H59.526V46.0743H60.4855V49.0898C60.4855 49.7294 60.6225 50.2282 60.8967 50.5861Z" fill="white"/>
<path fill-rule="evenodd" clip-rule="evenodd" d="M69.7225 51.1115C69.0981 51.1115 68.5689 50.9859 68.1348 50.7346C67.7008 50.4757 67.3695 50.114 67.1411 49.6495C66.9203 49.185 66.8098 48.6481 66.8098 48.0389C66.8098 47.4221 66.9241 46.8853 67.1525 46.4284C67.381 45.9639 67.7122 45.6022 68.1463 45.3433C68.5803 45.0767 69.1095 44.9435 69.734 44.9435C70.3584 44.9435 70.8876 45.0767 71.3217 45.3433C71.7557 45.6022 72.0831 45.9639 72.304 46.4284C72.5248 46.8929 72.6352 47.4336 72.6352 48.0504C72.6352 48.6519 72.521 49.185 72.2926 49.6495C72.0717 50.114 71.7443 50.4757 71.3102 50.7346C70.8838 50.9859 70.3546 51.1115 69.7225 51.1115ZM69.7225 50.0607C70.1337 50.0607 70.465 49.9693 70.7163 49.7865C70.9752 49.6038 71.1656 49.3601 71.2874 49.0555C71.4092 48.7433 71.4702 48.4044 71.4702 48.0389C71.4702 47.6734 71.4092 47.3384 71.2874 47.0338C71.1656 46.7292 70.9752 46.4855 70.7163 46.3027C70.465 46.1124 70.1337 46.0172 69.7225 46.0172C69.3189 46.0172 68.9877 46.1124 68.7288 46.3027C68.4699 46.4855 68.2795 46.7292 68.1577 47.0338C68.0435 47.3384 67.9863 47.6734 67.9863 48.0389C67.9863 48.4121 68.0435 48.7509 68.1577 49.0555C68.2795 49.3601 68.4699 49.6038 68.7288 49.7865C68.9877 49.9693 69.3189 50.0607 69.7225 50.0607Z" fill="white"/>
<path d="M95.8312 48.0613C95.8312 46.8219 96.8685 45.9091 98.1722 45.9091C100.125 45.9091 102.18 47.9671 102.18 51.0247H103.469C103.469 47.4633 101.031 44.6112 98.1722 44.6112C96.2993 44.6112 94.5425 45.9696 94.5425 48.0613C94.5425 50.1198 96.1227 51.2843 97.5923 51.2843C98.9852 51.2843 100.631 50.1943 100.631 48.1803H99.3427C99.3427 49.346 98.4116 49.9864 97.5923 49.9864C96.7638 49.9864 95.8312 49.3339 95.8312 48.0613Z" fill="white"/>
<path d="M84.0982 45.9222C83.6321 45.9223 83.1855 46.1081 82.8566 46.4382C82.5277 46.7682 82.3434 47.2153 82.3433 47.6809V51.0245H81.0546V47.6809C81.0547 46.8695 81.376 46.0919 81.947 45.5189C82.5179 44.9459 83.2917 44.6244 84.0982 44.6243C84.9047 44.6243 85.6786 44.9458 86.2496 45.5188C86.8207 46.0918 87.142 46.8695 87.1421 47.6809V51.0245H85.8534V47.6809C85.8534 47.2153 85.669 46.7681 85.3401 46.4382C85.0111 46.1081 84.5644 45.9222 84.0982 45.9222Z" fill="white"/>
<path d="M89.6005 49.4463C89.9294 49.7764 90.376 49.9623 90.8422 49.9623C91.3083 49.9623 91.7551 49.7765 92.084 49.4464C92.4129 49.1163 92.5973 48.6693 92.5974 48.2036V44.86H93.8861V48.2036C93.886 49.0151 93.5646 49.7927 92.9936 50.3657C92.4226 50.9387 91.6486 51.2602 90.8421 51.2602C90.0357 51.2601 89.2618 50.9386 88.6909 50.3657C88.1199 49.7926 87.7987 49.015 87.7986 48.2036V44.86H89.0873V48.2036C89.0873 48.6693 89.2716 49.1163 89.6005 49.4463Z" fill="white"/>
<path d="M112.646 49.4463C112.975 49.7764 113.421 49.9623 113.887 49.9623C114.354 49.9623 114.8 49.7765 115.129 49.4464C115.458 49.1163 115.643 48.6693 115.643 48.2036V44.86H116.931V48.2036C116.931 49.0151 116.61 49.7927 116.039 50.3657C115.468 50.9387 114.694 51.2602 113.887 51.2602C113.081 51.2601 112.307 50.9386 111.736 50.3657C111.165 49.7926 110.844 49.015 110.844 48.2036V44.86H112.132V48.2036C112.132 48.6693 112.317 49.1163 112.646 49.4463Z" fill="white"/>
<path d="M105.891 46.4383C106.22 46.1082 106.666 45.9224 107.133 45.9224C107.599 45.9224 108.046 46.1083 108.374 46.4383C108.703 46.7683 108.887 47.2155 108.888 47.6812V51.0247H110.176V47.681C110.176 46.8696 109.855 46.092 109.284 45.519C108.713 44.9461 107.939 44.6246 107.133 44.6245C106.326 44.6245 105.552 44.9459 104.981 45.5189C104.41 46.0919 104.089 46.8696 104.089 47.681V51.0247H105.377V47.6811C105.377 47.2154 105.562 46.7683 105.891 46.4383Z" fill="white"/>
</svg>
