<svg width="76" height="76" viewBox="0 0 76 76" fill="none" xmlns="http://www.w3.org/2000/svg">
<rect width="76" height="76" rx="21" fill="#4F524A"/>
<path d="M54.9436 40.8074L42.6667 29.8333C40.7222 31 35.9 33.3333 32.1667 33.3333C28.4333 33.3333 26.7222 30.2222 26.3333 28.6667L36.8333 23.0667M54.9436 40.8074L61.3333 40.3333M54.9436 40.8074L56.1832 42.1564C57.5781 44.1757 57.0946 45.7657 55.5998 46.8595C54.4884 47.8655 51.9804 47.2405 51.1884 46.0939M61.3333 20.5001C59.7778 20.8889 56.2 21.6667 54.3333 21.6667C52 21.6667 52 20.5 49.6667 19.3333C47.8 18.4 45 18.9444 43.8333 19.3333L36.8333 23.0667M36.8333 23.0667L24 22.8334L14.6667 19.3334M13.5 41.5001L18.1667 42.6667M18.1667 42.6667C17.2146 43.4821 17.5631 45.4119 18.349 46.0209C19.6691 47.044 21.0789 46.5733 22.6323 45.3931M18.1667 42.6667C19.5217 41.5061 22.0677 38.9844 23.8906 40.8074C24.9069 41.8236 25.2644 43.1445 23.2633 44.8824M22.6323 45.3931C22.795 45.2695 22.9592 45.1382 23.125 45C23.1723 44.9606 23.2184 44.9214 23.2633 44.8824M22.6323 45.3931C22.8327 45.2236 23.044 45.0504 23.2633 44.8824M22.6323 45.3931C22.3002 45.6741 21.9982 45.9452 21.7396 46.1667C20.7876 46.9821 21.136 48.9119 21.9219 49.5209C23.3802 50.6511 24.9479 49.9584 26.6979 48.5C28.8531 46.704 28.5026 45.3464 27.4635 44.3074C26.1985 43.0423 24.5851 43.8696 23.2633 44.8824M41.2717 54.1005L40.0321 52.7515M41.2717 54.1005C42.849 55.9011 42.2656 57.6876 40.7708 58.7813C39.276 59.8751 36.6875 58.7813 35.2925 56.5208M41.2717 54.1005C42.0638 55.2471 44.5718 55.8721 45.6832 54.8661C47.1779 53.7724 47.6615 52.1824 46.2665 50.163M46.2665 50.163L45.0269 48.814M46.2665 50.163C47.0586 51.3096 49.5665 51.9346 50.6779 50.9286C52.1727 49.8349 52.5833 48.1132 51.1884 46.0939M51.1884 46.0939L49.9488 44.7449M32.8167 56.3446C31.5142 57.1757 30.3125 57.4008 29.1771 56.5208C28.3913 55.9118 28.0428 53.9821 28.9948 53.1667C30.3498 52.0061 32.8958 49.4844 34.7187 51.3073C35.7578 52.3464 36.1083 53.7039 33.9531 55.4999C33.5656 55.8229 33.1871 56.1082 32.8167 56.3446ZM25.349 49.6667C24.3969 50.4821 24.7454 52.4118 25.5312 53.0208C26.9896 54.151 28.5573 53.4583 30.3073 51.9999C32.4625 50.2039 32.112 48.8464 31.0729 47.8073C29.25 45.9844 26.704 48.5061 25.349 49.6667Z" stroke="#E5FF78" stroke-width="1.5" stroke-linecap="round" stroke-linejoin="round"/>
</svg>
